# xmcd
#
# Track frame offsets:
#	150
#	17295
#	39391
#	55485
#	70132
#	88784
#	107711
#	126217
#	132299
#	155460
#
# Disc length: 2318 seconds
#
# Revision: 0
# Processed by: cddbd v1.5.2PL0 Copyright (c) Steve Scherf et al.
# Submitted via: EZCDAudioConverter 7.0.6.1
#
DISCID=7f090c0a
DTITLE=Maranatha! 2
DYEAR=1900
DGENRE=
TTITLE0=Tom Stipe (Country Faith) - Come Quickly Jesus
TTITLE1=Gary Arthur (The Way) - Jesus Is All That We Need
TTITLE2=Denny Stahl - The Son In My Life
TTITLE3=Jim Golden (Blessed Hope) - Never Knew The Day
TTITLE4=Erick Nelson (Selah) - He Lives
TTITLE5=Debby Kerner - The Peace That Passes Understanding
TTITLE6=Bruce Herring (The Way) - Jesus Is The One
TTITLE7=Chuck Butler (Country Faith) - Ballad Of Luke Warm
TTITLE8=Ken Gulliksen - Charity
TTITLE9=Marsha Carter (Children Of The Day) - Can I Show You
EXTD=
EXTT0=
EXTT1=
EXTT2=
EXTT3=
EXTT4=
EXTT5=
EXTT6=
EXTT7=
EXTT8=
EXTT9=
PLAYORDER=
